<svg width="460" height="1003" viewBox="0 0 460 1003" fill="none" xmlns="http://www.w3.org/2000/svg">
<path fill-rule="evenodd" clip-rule="evenodd" d="M76.6575 456.155C76.715 460.062 77.1075 469.037 78.0899 472.819C67.1453 455.306 50.7456 436.164 48.2516 414.715C49.0289 414.503 52.4777 414.184 53.0798 413.734C58.7422 416.36 57.671 408.277 58.5079 404.54C60.7679 396.625 65.5159 388.84 67.5789 380.873C73.0018 378.532 62.1117 377.539 60.5296 377.494C67.1073 370.182 70.1329 360.131 74.8164 351.602C81.6981 337.108 87.8615 322.291 93.3648 307.241C94.5676 316.671 94.7834 326.204 94.0504 335.685C91.7874 376.3 76.5041 415.351 76.6575 456.155ZM456.51 384.009C453.105 384.58 447.432 385.121 444.033 385.399C448.494 382.745 461.677 377.687 453.369 373.143C450.807 372.209 448.059 373.541 445.475 373.952C434.748 375.716 421.502 375.623 410.651 374.734C414.606 371.493 419.815 366.824 423.676 363.47C425.728 361.688 427.716 361.012 425.409 358.35C421.34 354.568 414.065 357.353 409.362 359.015C396.387 366.272 381.736 374.143 367.812 379.728C367.665 377.779 367.756 375.261 365.875 373.952C360.356 371.357 356.294 372.116 350.423 371.424C343.579 370.4 337.497 369.236 330.72 367.428C326.287 364.054 323.584 354.1 316.496 355.214C322.774 339.442 313.206 322.988 309.612 307.887C305.126 292.432 302.769 276.381 302.706 260.313C302.661 234.585 287.735 214.844 266.166 201.642C257.663 195.91 251.954 181.967 241.427 179.175C240.088 174.047 240.008 171.794 238.831 166.626C238.241 165.142 237.802 157.087 236.319 157.361C234.682 149.384 226.34 146.183 219.123 144.513C209.738 142.571 196.641 140.218 188.204 145.698C185.76 147.728 184.686 151.127 184.508 154.163C183.57 158.206 181.62 162.395 179.347 165.903C175.469 164.594 177.664 162.156 173.827 161.588C138.796 156.406 99.9131 182.061 77.1849 207.09C35.9863 249.327 3.07418 306.986 8.46159 367.182C7.01273 366.969 0.590678 365.963 0.683366 367.989C0.997876 376.799 2.62122 384.147 3.06945 392.948C2.62394 404.61 14.759 406.015 23.5251 408.89C22.9853 442.723 35.2966 476.563 54.5662 504.373C59.2476 509.846 66.2721 528.835 74.8171 521.271C75.824 520.095 68.0147 511.949 66.6253 509.938C61.8812 503.975 49.3147 474.453 58.196 468.556C60.1703 474.93 79.2887 505.573 82.6966 488.18C87.223 490.803 94.7026 492.592 100.114 492.321C110.285 497.822 120.184 503.764 129.952 509.938C134.502 518.859 141.177 527.428 146.768 535.994C108.071 625.233 70.2995 772.113 20.5008 856.165C16.1588 861.655 40.045 870.984 44.264 872.998C36.1957 886.078 35.1856 901.234 29.0475 915.318C27.8783 915.128 26.6988 915.377 25.6443 915.941C18.0725 921.06 15.2152 939.387 14.7834 948.423C15.133 952.453 13.6364 958.55 16.903 961.519C16.4463 962.012 16.1055 962.615 15.8629 963.229C13.5642 965.017 13.8473 968.964 15.0762 971.412C19.3997 980.37 51.0025 979.54 61.258 981.457C97.5855 984.529 128.076 985.012 164.398 981.655C168.857 980.722 165.485 973.778 163.284 971.894C164.3 971.277 164.95 970.149 164.505 968.7C156.248 945.123 126.404 946.719 108.344 934.128C113.093 931.386 110.029 932.261 107.044 933.328C103.879 931.34 100.798 929.105 97.945 926.636C100.137 925.284 99.0551 924.391 96.685 925.524C92.9484 922.532 90.0384 917.908 85.2785 916.457C80.6166 915.318 80.6166 913.326 80.6166 912.072C83.3911 900.934 86.4218 889.513 87.9794 878.217C89.6409 880.663 103.978 861.059 107.044 856.165C118.963 837.319 118.931 818.748 127.272 798.253C144.401 753.621 179.486 660.079 200.882 617.393C250.945 698.84 226.561 808.993 257.445 895.843C258.817 898.452 261.398 908.237 264.972 905.415C266.362 905.739 267.839 905.914 269.161 906.101C268.78 915.595 268.067 925.064 266.487 934.458C265.015 934.847 263.765 935.619 263.117 936.968C260.639 935.15 255.892 961.959 255.486 964.689C255.481 968.212 252.439 976.056 255.217 978.149C251.213 979.785 250.559 985.829 253.374 988.936C261.733 1000.15 302.475 997.069 317.506 998.95C336.513 998.478 416.027 1005.58 421.548 987.582C422.646 983.473 420.763 978.284 416.936 976.703C418.469 973.133 414.801 969.688 412.557 967.183C399.329 953.446 378.987 951.281 361.374 945.302C362.031 944.631 338.382 932.534 333.256 929.542C333.594 925.481 325.139 929.554 325.116 929.542C321.084 922.43 318.229 911.362 315.526 903.689C320.515 902.145 332.534 900.773 334.761 895.843C341.92 893.446 334.739 883.079 333.256 878.217C291.288 773.382 331.103 641.148 269.161 542.201C280.517 535.708 293.542 521.501 282.327 509.582C280.082 506.717 274.592 497.796 274.683 499.355C272.596 490.86 267.939 476.23 266.487 467.642C261.16 436.11 264.652 406.579 269.161 374.734C275.424 398.696 297.008 418.66 318.965 429.609C327.534 433.138 338.849 440.424 348.257 438.126C356.748 435.618 372.168 418.215 373.986 409.857C398.737 412.796 424.438 410.437 448.092 402.669C451.129 401.522 454.722 401.62 453.784 397.317C452.847 393.665 446.169 394.596 443.298 395.275C447.687 392.846 459.08 392.21 458.992 385.861C458.844 384.537 457.866 383.782 456.51 384.009Z" fill="white"/>
<path fill-rule="evenodd" clip-rule="evenodd" d="M184.594 148.767C184.97 148.919 185.227 149.49 185.379 150.349C185.798 150.48 186.158 150.788 186.266 151.255C186.583 152.624 186.212 154.051 185.925 155.416L185.892 155.573C185.623 156.893 185.291 158.208 184.887 159.495L184.826 159.821C183.842 165.142 181.942 170.201 179.711 169.342L180.226 170.279C188.98 186.139 213.982 228.726 233.502 222.655C244.87 218.105 244.708 203.318 243.877 193.028C235.436 198.196 233.857 158.628 235.587 154.255C236.966 153.243 237.63 162.346 238.142 163.601C239.26 168.593 240.632 173.521 241.92 178.473C244.641 179.011 247.215 180.094 249.492 181.647C249.599 181.708 249.711 181.766 249.817 181.83C251.183 182.66 252.249 183.719 253.199 184.891C254.272 186.089 255.191 187.403 256.059 188.752C257.964 190.914 259.782 193.157 261.659 195.343C262.55 196.381 263.462 197.385 264.395 198.367L265.114 198.969C265.234 199.07 265.355 199.169 265.475 199.268C287.042 212.712 301.973 232.826 302.014 259.027C302.077 275.396 304.435 291.744 308.92 307.486C312.514 322.868 324.126 338.59 317.849 354.653C324.937 353.519 325.595 362.619 330.027 366.057L331.421 366.433C337.648 368.106 343.358 369.502 349.729 370.473C355.601 371.176 362.389 370.403 367.906 373.049C369.787 374.381 369.114 376.785 369.261 378.769C383.186 373.082 395.693 365.225 408.668 357.832L409.101 357.677C413.905 355.976 422.471 353.418 426.416 357.155C428.725 359.866 426.395 362.286 424.343 364.103C420.482 367.519 416.387 370.652 412.431 373.955C423.09 374.843 433.781 374.135 444.323 372.409L444.897 372.312C447.479 371.894 450.525 370.889 453.086 371.84C461.394 376.469 451.782 381.874 447.321 384.577C450.72 384.295 454.112 383.873 457.517 383.29C458.872 383.059 459.85 383.83 459.999 385.177C460.085 391.645 451.554 391.994 447.166 394.467L447.518 394.384C450.386 393.721 454.511 393.139 455.409 396.708C456.349 401.09 450.432 402.862 447.396 404.029C423.742 411.942 398.043 414.344 373.291 411.352C371.475 419.865 356.053 437.59 347.564 440.144C338.156 442.486 326.841 435.065 318.272 431.47C296.317 420.318 275.973 401.923 269.711 377.515C264.448 415.36 266.576 453.511 274.476 490.746C275.754 493.648 277.103 496.506 278.621 499.291C279.08 499.365 279.469 499.67 279.558 500.29C279.605 500.629 279.673 500.959 279.75 501.284C281.263 503.848 282.918 506.312 284.457 508.862C284.775 509.388 285.089 509.935 285.376 510.496C295.615 522.554 283.135 538.093 271.972 544.593C333.913 645.379 293.908 772.39 335.873 879.174L335.966 879.478C337.559 884.556 342.411 895.01 335.394 897.403C333.167 902.425 321.942 903.019 316.953 904.591C319.657 912.407 322.661 920.137 326.693 927.382L326.766 927.415C328.372 926.235 331.814 925.017 333.237 926.303C333.583 926.346 333.929 926.443 334.264 926.61C336.467 927.703 338.239 929.792 340.345 931.108C341.484 931.818 342.668 932.465 343.888 933.029C345.023 933.554 346.229 933.9 347.155 934.767C347.447 935.039 347.522 935.386 347.45 935.706C348.181 936.085 348.911 936.465 349.64 936.847L350.036 936.6C356.472 932.596 361.648 930.426 352.284 938.118C355.64 939.668 359.081 941.022 362.543 942.292C365.173 941.028 367.981 940.107 370.875 939.981C371.396 940.624 367.417 943.106 366.761 943.79C384.374 949.881 403.745 954.65 416.974 968.642L417.12 968.809C419.373 971.344 422.851 974.782 421.353 978.339C425.179 979.95 427.061 985.235 425.963 989.42C420.443 1007.76 335.82 1000.52 316.813 1001C301.783 999.083 261.043 1002.22 252.684 990.799C249.87 987.633 250.523 981.478 254.526 979.812C251.749 977.68 254.79 969.69 254.796 966.103L254.861 965.688C255.285 963.009 257.131 952.524 259.045 945.198C259.083 944.621 259.161 944.03 259.253 943.433L259.313 943.055C259.693 940.72 260.279 938.345 261.788 936.467C262.874 935.118 264.376 934.286 266.008 933.985C266.445 931.195 266.804 928.399 267.113 925.598C267.329 922.305 267.411 919.007 267.375 915.707C267.355 914.039 267.311 912.375 267.23 910.711C267.17 909.485 267.24 908.031 266.929 906.778C266.721 906.99 266.425 907.104 266.095 906.99C265.392 906.751 264.745 906.307 264.099 905.944C264.075 905.93 264.055 905.914 264.035 905.898C260.589 908.134 258.095 898.571 256.753 895.975C225.872 807.512 250.255 705.704 200.193 622.744C193.283 637.557 187.343 651.144 180.691 666.059C159.917 712.639 134.27 794.687 117.071 844.007C112.39 854.089 106.891 863.833 100.352 872.836C98.262 875.202 96.8594 878.684 93.8336 879.957L93.5689 879.997C92.7612 881.504 91.6402 882.774 89.9732 882.731C89.5643 882.721 89.1472 882.675 88.7261 882.601C87.2485 892.865 85.3907 903.192 82.921 913.292L83.2543 913.153C84.8708 912.486 86.5707 911.917 88.2299 912.065C92.2563 913.084 90.7655 916.599 87.5828 917.758C91.5445 918.988 94.2251 922.455 97.1668 925.34C99.6534 924.001 102.44 923.308 105.417 923.6C105.873 923.644 106.221 923.843 106.463 924.117C106.634 924.117 106.799 924.128 106.957 924.153L106.632 924.348C107.162 925.237 106.784 926.59 105.417 926.597C104.345 926.603 103.312 926.7 102.314 926.884C101.619 927.288 100.93 927.699 100.249 928.125C102.545 930.149 104.989 932.018 107.506 933.725C108.835 933.046 110.241 932.478 111.703 932.022C113.59 931.432 114.415 934.429 112.518 934.973C112.116 935.088 111.717 935.216 111.321 935.354L110.932 935.589C110.842 935.643 110.747 935.699 110.648 935.757C128.707 948.582 159.231 946.957 167.49 970.971C167.762 971.878 167.622 972.66 167.237 973.275C169.028 974.914 169.853 977.861 169.45 980.122L169.484 980.313C169.791 982.143 169.349 983.75 167.382 984.167C154.248 985.388 141.148 986.164 127.958 986.404L126.893 986.414C107.995 986.54 16.0771 985.854 11.931 973.735C10.8253 971.491 10.4845 968.008 12.1024 966.008C12.2901 964.931 12.6598 963.951 13.3171 963.183C10.6548 960.499 11.9644 953.728 11.6385 950.318C12.2229 938.935 14.5353 926.729 21.5017 917.414C21.6155 917.266 21.7531 917.176 21.8953 917.131C23.1117 915.912 24.7102 915.14 26.538 915.035C26.5948 914.895 26.6528 914.753 26.7083 914.61C28.1292 911.265 29.4789 907.855 30.8199 904.432C31.8148 900.541 32.8527 896.661 33.8924 892.801C34.9313 888.945 35.9477 885.084 36.9421 881.217C37.7341 878.133 38.4152 874.658 39.7857 871.713C39.7486 871.586 39.7128 871.462 39.6719 871.335L38.2457 870.758C28.9044 866.966 14.1034 860.57 17.3554 856.346C52.0094 784.426 85.931 682.038 117.732 607.479C118.23 606.018 118.755 604.565 119.332 603.124C120.736 599.619 122.158 596.119 123.602 592.628L124.47 590.535L138.324 557.24C139.775 553.755 141.409 550.289 142.553 546.689C143.653 543.219 143.95 539.769 141.857 536.612C139.986 533.788 137.347 531.45 135.237 528.797C133.641 526.791 132.084 524.647 130.69 522.396C129.424 520.729 128.365 518.819 127.421 517.281C125.908 514.817 123.983 512.088 122.886 509.24C121.47 508.348 120.051 507.461 118.626 506.583C116.165 505.206 113.746 503.764 111.39 502.204C108.414 500.436 105.42 498.7 102.401 497.003C101.312 496.463 100.222 495.925 99.1312 495.389C95.8607 495.673 86.8274 491.647 83.7501 488.923C83.3984 488.853 83.0484 488.773 82.7006 488.685C82.5616 490.426 81.9926 492 80.6666 493.168C71.849 497.538 60.6104 477.746 57.5129 471.142C51.3576 477.148 66.0447 506.856 70.7889 512.929L71.0421 513.305C72.3111 515.205 73.6413 517.337 75.4412 518.74L75.6229 518.878C76.8567 519.791 77.0857 521.214 76.0791 522.412C67.534 530.117 58.5642 513.198 53.883 507.625C34.6148 479.297 22.303 444.828 22.8428 410.366C14.0774 407.438 1.94254 406.006 2.38791 394.129C1.93982 385.163 0.31648 376.293 0.000965915 367.321C-0.0904313 365.258 6.33134 366.281 7.78063 366.499C5.64578 345.882 8.87137 324.951 14.6242 305.138C29.7277 254.439 91.9227 163.062 153.139 159.763C153.086 159.663 153.11 159.529 153.248 159.493C156.018 158.775 159.08 158.889 161.928 158.98C164.891 159.073 167.904 159.095 170.851 159.429C173.906 159.775 177.142 160.897 179.195 163.115L179.905 161.834C180.73 160.338 181.525 158.828 182.126 157.178C182.43 156.344 182.668 155.479 182.887 154.605C183.132 153.36 183.194 152.063 183.783 150.93C183.799 150.902 183.819 150.877 183.836 150.849C184.049 150.136 184.291 149.438 184.594 148.767ZM259.726 979.769C258.851 980.657 257.334 981.043 255.991 980.62C251.528 993.285 275.747 992.49 283.52 993.203C291.808 994.086 442.795 1001.93 417.261 983.356C387.303 994.759 287.108 996.017 259.726 979.769ZM333.257 929.544C331.241 931.619 328.202 932.543 326.04 934.523C319.928 939.687 315.011 946.95 306.564 948.318C295.466 950.387 285.462 944.918 275.535 940.586C274.299 940.526 273.01 940.005 271.743 939.619C271.698 939.711 271.654 939.803 271.602 939.888C271.54 939.863 271.474 939.843 271.401 939.832C271.291 939.813 271.186 939.801 271.078 939.786C270.823 939.582 270.555 939.411 270.276 939.266C270.108 939.24 269.942 939.22 269.776 939.21C267.73 939.085 265.508 939.56 264.196 941.253C264.084 941.398 263.982 941.55 263.883 941.705C263.247 943.957 263.165 946.68 263.472 948.585C263.573 949.208 263.313 949.819 262.873 950.172C262.481 959.596 261.418 969.06 260.676 978.357C264.389 979.69 268.242 980.705 272.099 981.346C298.706 984.613 325.598 986.131 352.412 985.309C368.373 984.734 384.312 983.309 400.108 980.942C405.214 980.461 410.44 978.49 415.543 979.286C415.76 978.876 416.1 978.525 416.571 978.286C403.491 960.401 381.135 955.566 361.645 947.724C358.427 949.779 356.444 954.059 352.858 955.333C351.466 955.541 349.531 954.722 349.736 952.959C350.314 949.349 354.218 947.703 356.848 945.607C354.027 944.291 351.258 942.86 348.559 941.271C345.906 943.658 342.767 945.473 340.283 948.02C341.695 951.462 335.811 951.164 335.745 947.501C336.153 943.449 342.581 941.734 345.453 939.371C340.968 936.645 336.962 933.207 333.257 929.544ZM17.2597 964.955C17.1033 965.263 16.848 965.543 16.4701 965.761C15.816 966.139 16.1303 968.137 16.1632 968.81L16.1651 968.861C16.2009 970.069 16.2766 971.275 16.3816 972.479C17.4855 973.473 18.8972 974.23 20.4658 974.684C68.2339 982.295 116.918 982.913 165.148 980.15C164.926 978.87 163.989 977.817 163.159 976.748C132.67 979.336 101.447 976.629 70.9055 974.106C53.0508 971.763 34.3435 970.793 17.2597 964.955ZM86.8042 918.117C78.9314 920.823 71.606 924.578 64.6281 929.076C62.035 930.761 59.5601 932.692 56.5793 933.658C46.2578 936.76 30.7833 921.859 30.5352 921.693C26.9509 919.284 23.1501 921.529 21.1999 924.869C21.0197 925.178 18.0303 942.259 18.1207 950.627C17.5842 953.471 19.0154 958.119 18.2539 961.222C18.8526 961.942 19.7062 962.279 20.281 963.032C20.4891 963.305 20.4303 963.614 20.2504 963.846C48.1224 966.136 75.8324 970.482 103.837 971.399C123.003 972.412 142.207 972.179 161.376 971.947C157.016 959.16 142.16 955.784 130.813 951.574C122.239 948.499 114.346 943.916 107.401 938.026C104.388 940.137 102.014 943.096 99.8801 946.069C98.9102 947.277 96.9197 948.189 95.8815 946.515C94.8121 944.777 96.8996 942.582 99.477 940.659C100.833 938.655 102.542 936.948 104.51 935.54C102.334 933.603 100.239 931.584 98.2756 929.439C94.2046 932.194 91.2139 936.156 88.2855 940.001C86.8781 941.533 84.2462 939.506 85.4007 937.778C86.3258 936.587 87.3671 935.488 88.482 934.46C90.1626 931.293 92.5823 928.37 95.5179 926.346L95.2939 926.062C92.8418 922.919 90.7221 919.15 86.8042 918.117ZM17.4406 962.948C17.3732 963.031 17.3023 963.111 17.2265 963.189C17.2941 963.327 17.3459 963.47 17.3841 963.618L18.0992 963.674C17.8508 963.468 17.632 963.217 17.4406 962.948ZM314.336 905.109C299.733 907.861 284.647 908.92 269.909 906.647C271.615 916.151 272.684 925.716 272.124 935.369C294.163 941.721 303.32 952.314 321.655 931.145C320.77 929.798 320.259 928.144 319.664 926.55C317.13 919.628 315.035 912.468 314.336 905.109ZM46.1202 873.932C45.912 874.393 45.5364 874.772 44.9953 874.938C44.8025 875.79 44.6032 876.64 44.3906 877.489C44.0327 881.868 42.3774 886.21 40.6654 890.25C40.5479 890.529 40.4324 890.807 40.3162 891.087C39.187 894.447 38.0031 897.8 36.8353 901.158C35.9508 904.644 35.1715 908.161 34.3571 911.666C34.2 914.042 33.862 916.4 33.3423 918.73C33.3182 918.839 33.2858 918.938 33.25 919.034C34.0661 919.397 34.8539 919.819 35.5968 920.244C57.9555 937.016 54.094 925.802 75.5618 916.413C75.4384 915.51 75.8907 914.695 76.2598 913.763L76.3073 913.639C76.3298 913.58 76.352 913.521 76.3744 913.463C76.339 913.107 76.3598 912.724 76.4542 912.318C78.6285 903.438 81.6561 894.713 84.4898 886.023C84.9434 884.715 85.4684 883.436 86.0051 882.161C72.3934 881.986 58.9298 878.367 46.1202 873.932ZM130.533 514.107C254.03 667.864 226.975 685.996 253.567 863.257C256.149 877.056 261.399 890.153 264.873 903.689L265.352 903.643C265.827 903.597 266.277 903.568 266.613 903.676L266.628 903.682L267.996 903.664C283.974 903.445 300.021 902.611 315.626 898.974C321.146 898.006 326.524 895.467 332.046 894.936C332.069 894.22 332.409 893.552 332.871 893.164C290.276 792.572 319.954 677.659 282.999 575.356C279.492 565.119 275.315 555.108 270.995 545.189C223.497 573.543 170.415 541.433 130.533 514.107ZM40.2311 878.247C39.9676 879.408 39.6808 880.552 39.4194 881.657L39.034 883.307C39.5823 881.64 40.0147 879.948 40.2311 878.247ZM147.107 541.337C147.189 543.878 146.574 546.442 145.742 548.832C143.075 556.493 139.66 563.957 136.603 571.469C134.526 576.567 132.47 581.674 130.391 586.772C99.6061 668.888 61.8159 778.958 24.5316 856.778C38.5793 864.896 53.9823 870.639 69.9172 873.751C73.6174 874.987 84.1987 875.041 87.944 877L88.7968 876.165C88.9445 872.661 92.9221 870.164 94.5144 867.091C101.702 856.98 107.433 845.923 112.631 834.687L113.481 832.221C127.299 792.042 145.335 736.73 164.335 689.973L164.923 688.529C172.797 669.246 177.972 651.468 187.475 636.881C187.993 636.096 188.518 635.31 189.045 634.523C189.434 633.744 189.825 632.965 190.224 632.189C191.929 628.873 193.765 625.628 195.5 622.328C196.239 620.92 196.972 619.333 197.359 617.707C182.264 591.231 164.276 566.483 147.107 541.337ZM169.715 161.93C164.977 163.08 160.123 163.55 155.358 164.504C122.521 168.414 97.3447 191.663 75.6582 214.746C34.5777 257.825 10.6762 310.83 12.4403 370.737C27.1108 373.406 41.6297 377.311 56.5768 378.165C54.4045 374.879 58.0425 370.77 59.2946 367.625C80.9143 325.924 97.6074 279.888 111.163 235.984L110.795 237.9C106.538 259.934 101.58 281.877 94.0128 303.043C96.2049 300.891 132.215 272.298 129.4 281.753C118.398 290.338 105.972 297.14 94.4442 305.019C108.15 350.73 88.3353 397.047 84.5702 442.777C83.6244 452.946 83.7064 463.184 82.435 473.314C81.9515 474.459 82.4606 476.789 81.7488 477.88C82.2759 480.569 83.3847 483.018 85.673 485.117C86.6362 485.999 87.6877 486.766 88.7931 487.447C91.5529 487.863 94.3249 488.925 96.5725 489.908C101.573 492.094 105.975 495.317 110.446 498.398L110.565 498.478C117.774 502.175 124.973 506.375 132.201 510.756L132.523 510.925C135.211 512.334 137.96 513.604 140.302 515.556C140.409 515.647 140.479 515.749 140.527 515.855L144.916 518.561C180.077 540.225 216.33 561.648 257.555 546.185C269.137 541.528 285.976 532.091 283.812 517.499C283.386 516.1 282.738 514.784 282.004 513.506C281.801 513.231 281.591 512.961 281.38 512.694C279.783 510.679 277.996 508.83 276.608 506.652C276.044 505.767 275.538 504.856 275.096 503.916C274.783 503.821 274.505 503.602 274.33 503.22C272.345 498.9 270.401 494.572 268.592 490.175C246.646 413.797 273.284 331.735 280.819 254.699C281.342 250.288 282.111 245.831 282.108 241.388C282.108 241.18 282.41 241.187 282.428 241.388C285.085 261.05 283.069 280.895 280.542 300.467C277.307 324.954 273.056 349.338 270.136 373.868C277.899 398.594 299.642 416.461 322.475 427.175C326.359 429.017 330.33 430.659 334.381 432.105L334.652 432.198C339.101 433.754 344.124 436.157 348.417 433.006C356.656 427.425 362.473 418.908 367.812 410.705C365.651 410.471 363.488 410.269 361.323 410.12C356.01 416.189 349.498 421.34 342.626 425.55C339.826 427.152 336.645 426.475 335.351 423.338C334.128 420.378 335.625 416.922 336.708 414.068L336.864 413.652C342.348 398.888 351.871 385.358 364.728 376.113C355.027 374.176 344.952 374.235 335.648 370.409C336.154 370.941 335.49 371.536 335.167 371.988C335.282 372.863 334.645 373.503 333.861 373.737C326.27 383.64 320.515 395.368 319.314 407.929C319.634 412.206 315.798 417.147 312.107 412.655C309.218 400.152 320.578 380.611 330.567 372.896C320.551 366.032 323.47 356.128 317.182 356.082C315.556 359.195 313.435 362.177 310.764 364.49C309.556 365.47 308.088 366.21 306.792 367.08C305.428 367.995 304.009 365.982 305.089 364.876L305.373 364.534C309.475 359.637 314.345 354.822 315.193 348.196C316.417 340.036 312.744 331.769 309.927 324.315C304.529 310.026 300.948 295.157 299.205 279.986C297.228 266.391 299.631 252.289 294.969 239.135C294.042 235.471 292.711 232.135 291.077 229.038C291.038 229.005 290.999 228.972 290.965 228.932C289.025 226.693 287.475 224.202 285.667 221.856C283.778 219.402 281.728 217.068 279.557 214.858C275.928 211.166 271.921 208.086 267.745 205.12C267.668 205.093 267.589 205.057 267.511 205.01C266.728 204.549 265.978 203.988 265.252 203.373L265.181 203.324C262.754 201.639 260.274 199.81 258.379 197.523C256.519 195.276 255.195 192.657 253.676 190.182C251.599 187.654 249.619 184.945 247.116 182.838C245.7 182.031 244.225 181.269 242.96 180.261C242.754 180.173 242.543 180.091 242.329 180.014C242.869 182.208 243.684 184.225 244.418 186.452C245.481 186.004 246.938 186.501 247.117 188.136L247.183 188.748C248.251 198.767 248.792 210.891 242.889 219.566C229.892 238.378 210.479 222.316 200.661 209.089C191.85 198.539 184.443 186.803 178.972 174.192L178.882 174.025C177.863 172.095 175.657 166.21 175.032 163.382C173.456 162.554 171.536 162.152 169.715 161.93ZM128.106 512.55C128.065 512.601 128.021 512.642 127.972 512.68C129.815 515.294 131.571 517.997 133.381 520.62C131.898 518.198 130.502 515.759 129.266 513.291C128.88 513.043 128.492 512.797 128.106 512.55ZM24.9413 411.018C31.986 449.194 42.0534 489.361 70.1055 517.905C61.3751 505.63 54.586 491.301 52.6106 476.291C52.5288 472.263 53.9985 468.008 58.4637 467.411C59.2258 467.31 59.8047 467.991 60.0769 468.597L60.103 468.657C61.8596 472.842 64.1437 476.822 66.8482 480.47L67.1135 480.815C69.1543 483.45 77.8168 494.188 79.0254 489.055C78.1407 463.107 51.2749 452.409 46.8751 416.672C39.3472 415.876 32.2038 413.022 24.9413 411.018ZM82.6972 486.744C82.7262 487.152 82.7401 487.555 82.7339 487.952C83.1329 487.787 83.5431 487.655 83.9627 487.553C83.5367 487.291 83.1156 487.02 82.6972 486.744ZM82.2976 483.948C82.4452 484.694 82.5699 485.446 82.6465 486.19C83.4133 486.434 84.1717 486.701 84.9262 486.978C84.4689 486.568 84.0339 486.133 83.6259 485.671C83.1506 485.133 82.7048 484.555 82.2976 483.948ZM92.6798 306.828C87.1771 322.157 81.0136 337.25 74.1321 352.014C69.5116 360.655 66.4288 370.721 60.035 378.22C59.9726 378.28 59.9099 378.334 59.8457 378.386L59.9518 378.39C61.8571 378.475 72.2092 379.492 66.8952 381.83C64.832 389.943 62.1288 397.874 59.8687 405.934L59.8182 406.168C58.9913 410.068 57.9456 417.922 52.3964 415.301C51.7942 415.76 51.0715 416.083 50.2942 416.299C52.7885 438.149 66.6335 452.372 77.5782 470.211C75.1316 460.796 75.8466 450.964 76.6984 441.352L76.9096 438.986C81.4317 394.912 98.0269 351.572 92.6798 306.828ZM138.641 446.927C129.721 435.828 85.8486 325.951 116.852 392.519C127.873 415.692 136.943 440.502 155.123 459.279C156.38 460.628 154.724 462.997 153.09 461.908C147.222 457.998 142.472 452.809 138.641 446.927ZM106.888 314.124C106.852 313.945 107.08 313.847 107.18 313.999C119.101 337.488 127.612 362.729 141.081 385.507C149.212 399.611 158.967 412.758 170.14 424.613C170.979 425.504 169.716 426.733 168.807 425.943C136.915 396.578 121.409 353.891 106.888 314.124ZM341.942 410.824L341.922 410.828L341.629 411.585C341.529 411.84 341.428 412.098 341.327 412.358C341.375 412.336 341.424 412.316 341.473 412.296C341.578 412.19 341.682 412.084 341.787 411.972C341.763 411.586 341.811 411.199 341.942 410.824ZM7.90747 367.42C6.28814 368.054 4.29893 368.174 2.50901 368.329C4.51286 377.752 6.24295 387.246 8.05669 396.694C8.89533 399.594 10.8669 400.613 13.5956 401.532L15.7887 402.232C26.0272 405.507 36.3234 408.87 46.8805 410.877C47.6228 410.395 48.6771 410.418 49.1698 411.191C49.6833 411.239 50.2104 411.267 50.7314 411.316C53.5521 400.921 58.3789 390.847 64.8379 382.223C46.7844 382.804 28.6007 378.052 11.426 372.739C10.7306 373.076 9.81461 372.865 9.52119 372.069L9.25676 371.992C6.37351 371.139 2.55048 369.041 8.60981 370.107C8.24379 369.255 8.04076 368.34 7.90747 367.42ZM423.027 359.728C411.061 357.754 401.915 367.43 391.703 371.872C385.587 374.489 369.292 382.609 363.368 379.908C355.247 387.711 348.39 396.826 343.595 407.055C344.902 406.977 346.209 406.92 347.516 406.878C349.884 406.119 352.412 406.081 354.871 406.811C379.497 407.081 404.139 411.857 428.667 405.804L429.231 405.699C434.27 404.745 451.472 401.116 452.451 397.561C452.194 396.013 447.568 397.647 446.68 397.823C439.611 399.212 432.428 399.875 425.264 400.571C423.273 400.763 423.297 397.671 425.264 397.475C433.887 396.618 442.057 393.387 449.969 390.027C450.809 389.655 453.038 388.883 454.579 387.883C447.268 389.124 439.737 389.339 432.339 389.075C429.794 388.747 429.613 384.887 432.339 384.963C437.334 385.514 442.103 383.053 446.179 380.456L447.067 379.883C453.861 375.462 453.388 375.27 444.8 376.914C432.181 379.207 419.412 379.121 406.669 378.247C404.85 378.215 403.594 375.773 405.099 374.465C410.966 369.408 417.256 364.899 423.027 359.728ZM365.184 378.144L365.045 378.274C364.753 378.555 364.513 378.804 364.378 378.936L364.324 378.987C364.144 379.156 363.969 379.332 363.791 379.502C364.573 379.765 365.436 379.779 366.327 379.641C365.788 379.306 365.39 378.759 365.184 378.144ZM140.363 337.705L140.335 337.669L140.402 337.741C148.1 346.054 155.902 359.536 162.278 370.167C163.119 378.881 144.264 342.727 140.363 337.705ZM334.069 369.832C334.144 369.925 334.216 370.02 334.286 370.117L334.388 370.264L334.554 370.162C334.614 370.126 334.679 370.103 334.745 370.086C334.518 370.004 334.294 369.916 334.069 369.832ZM298.849 341.453C305.775 342.539 291.612 351.126 289.742 352.357C288.546 352.811 277.163 362.188 277.855 359.144C283.182 352.317 290.534 344.361 298.849 341.453ZM27.9084 323.456C30.4701 319.338 44.412 324.759 48.819 325.409C51.2962 326.06 53.7465 326.833 56.2504 327.382C58.2069 328.089 67.3303 327.403 63.982 331.263C60.4882 333.137 55.927 331.689 52.3492 330.693C45.2305 328.753 38.0873 326.489 30.7976 325.412C30.5788 325.302 30.5655 325.376 30.757 325.634C32.3251 329.11 35.623 332.373 39.3375 333.494C39.5942 333.568 39.4861 333.96 39.2264 333.894L38.9769 333.841C34.7992 332.911 25.7735 328.498 27.9084 323.456Z" fill="black"/>
<path fill-rule="evenodd" clip-rule="evenodd" d="M277.229 90.6815C277.095 83.0627 276.944 75.2925 275.809 67.7485C274.7 60.3732 271.648 53.7067 266.402 48.351C255.263 36.9748 239.114 34.1962 224.083 31.6498L198.384 27.2959C190.544 25.968 182.179 23.8453 174.258 25.7286C170.355 26.6567 167.039 28.8126 164.01 31.3634C161.09 33.8221 157.95 36.4624 155.971 39.7701C153.99 43.0828 153.308 46.955 152.664 50.7015C151.936 54.9254 151.371 59.1823 150.971 63.4494C150.167 71.9987 150.057 80.612 150.641 89.1792C150.922 93.3344 151.373 97.4781 151.946 101.603C152.231 103.648 152.552 105.688 152.915 107.721C153.023 108.321 153.104 108.985 153.213 109.655C152.403 111.957 151.942 114.34 151.979 116.712C152.088 123.701 158 128.101 163.959 130.463C167.414 131.833 171.026 132.764 174.421 134.294C177.992 135.904 180.423 138.514 182.865 141.489C187.522 147.167 192.778 152.269 198.779 156.526C211.502 165.551 227.617 169.82 243.054 166.58C246.758 165.802 250.495 164.596 253.823 162.776C257.339 160.856 259.983 158.073 262.203 154.783C266.323 148.675 269.279 141.798 271.515 134.799C273.796 127.659 275.414 120.507 276.298 113.063C277.178 105.642 277.363 98.1468 277.229 90.6815Z" fill="white"/>
<path fill-rule="evenodd" clip-rule="evenodd" d="M195.22 0.759158C205.855 -0.700758 220.533 4.04415 225.83 13.6114C251.116 7.66244 283.007 7.46759 303.848 27.2718C325.595 50.7642 298.281 81.7383 280.168 88.723C281.486 95.1179 279.43 136.09 264.883 154.367C253.337 169.851 226.449 176.998 214.008 158.502L213.91 158.35C212.577 156.213 213.725 156.282 215.094 157.871C227.277 168.563 243.841 168.746 256.607 157.462C280.529 136.838 278.063 86.2666 266.679 57.0105C234.264 53.4574 199.556 63.2625 177.167 87.6139L178.681 96.7106C178.939 98.2601 179.232 99.8083 179.456 101.364C179.599 102.359 179.615 103.351 178.924 104.157C176.639 106.82 172.79 102.819 169.623 101.227C168.688 101.095 167.751 101.045 166.833 101.11C151.615 103.065 154.614 132.526 171.338 127.362C172.744 126.489 173.951 126.755 174.496 128.022C178.482 131.667 181.11 138.166 187.733 144.426C190.071 146.774 192.197 148.738 194.826 150.622C196.369 152.18 201.028 153.768 199.552 156.436C196.76 162.502 180.29 143.444 177.378 138.174C168.256 141.769 158.146 140.547 148.691 139.669C98.8155 137.08 105.474 84.6123 146.356 51.4865C154.051 45.8325 162.542 41.2203 171.368 37.671C172.573 37.1865 172.047 35.212 170.824 35.7034C164.984 38.0522 159.291 40.8478 153.865 44.0836L153.856 42.149C153.849 38.8909 153.899 35.4987 154.467 32.5218C154.75 30.4589 155.226 28.2556 155.961 26.5982C156.868 21.5166 171.082 4.07414 195.22 0.759158ZM166.167 107.873C166.936 107.143 168.374 108.014 169.059 107.992C170.813 108.232 172.478 108.971 173.777 109.882C174.635 110.361 175.236 110.812 175.738 111.226L175.753 111.222C175.748 111.222 175.744 111.226 175.74 111.228L175.787 111.259C176.517 111.777 179.195 114.699 177.503 113.912C177.378 113.749 177.249 113.592 177.119 113.439C177.104 113.459 177.086 113.481 177.061 113.501L177.157 113.641C178.595 115.799 176.113 113.525 175.731 112.921C175.713 112.937 175.692 112.945 175.672 112.957L176.169 113.561C176.239 113.647 176.294 113.714 176.338 113.773L176.444 113.874C178.106 115.504 178.157 116.971 176.226 114.561C176.302 114.674 176.364 114.795 176.373 114.901L176.487 115.047C178.002 116.997 176.77 116.304 176.017 115.472L175.954 115.4L175.966 115.42C176.667 116.498 175.276 115.742 175.031 115.165L175.02 115.139C174.753 114.921 174.588 114.676 174.532 114.614L174.52 114.604C173.217 113.271 171.326 112.143 169.722 111.63C169.488 111.587 169.253 111.551 169.016 111.525C168.051 111.311 167.075 111.163 166.088 111.084C165.967 111.07 165.845 110.981 165.754 110.866C164.263 110.816 164.723 110.206 165.342 110.093L165.353 110.092L165.23 110.082C164.273 109.988 163.62 109.645 164.587 109.434L164.709 109.41C164.695 109.387 164.682 109.364 164.669 109.34C163.84 109.249 164.38 108.446 164.841 108.64C164.647 108.008 165.531 108.324 165.642 108.231C165.726 108.137 165.831 108.054 165.891 108.05C166.158 107.862 166.029 107.879 166.167 107.873ZM171.237 97.6489L171.044 97.7623C170.886 97.8541 170.725 97.9144 170.563 97.9502C170.791 98.0478 171.018 98.1525 171.242 98.2645C171.239 98.1281 171.236 97.9904 171.236 97.8541L171.237 97.6489Z" fill="black"/>
<path fill-rule="evenodd" clip-rule="evenodd" d="M247.058 139.3C244.549 140.026 241.854 140.09 239.296 139.342C236.974 138.661 234.591 137.165 232.884 135.186C231.366 133.427 230.383 131.291 230.422 129.009C230.426 128.75 230.519 128.532 230.663 128.364C230.818 128.182 231.034 128.057 231.265 128.002C231.504 127.948 231.755 127.966 231.968 128.064C232.162 128.151 232.329 128.301 232.432 128.519C232.694 128.863 232.956 129.202 233.218 129.532C235.329 132.133 237.373 134.077 240.547 134.773C242.269 135.152 243.989 134.984 245.566 134.407C247.256 133.789 248.783 132.703 249.98 131.312C250.52 130.684 251.159 130.428 251.783 130.424C252.49 130.418 253.189 130.747 253.716 131.271C254.234 131.786 254.581 132.487 254.613 133.219C254.64 133.862 254.429 134.533 253.871 135.133C252.028 137.108 249.641 138.554 247.058 139.3ZM246.982 106.724C249.555 108.285 253.476 111.925 250.707 115.795C247.449 119.207 242.758 115.294 240.447 113.525C238.303 112.155 235.894 115.68 237.883 117.281C254.588 129.625 261.368 107.133 248.284 104.889C246.843 104.642 246.308 106.242 246.982 106.724ZM222.912 99.8556C222.084 99.3276 221.111 99.1469 220.034 99.6361C219.191 100.019 217.714 101.293 216.685 102.969C215.98 104.116 215.483 105.461 215.586 106.862C215.61 107.188 215.49 107.427 215.3 107.605C215.15 107.744 214.933 107.848 214.678 107.879C214.462 107.906 214.22 107.882 214.023 107.82C213.649 107.704 213.451 107.462 213.376 107.265C212.656 105.355 212.967 103.226 213.774 101.305C214.863 98.7121 216.841 96.5398 218.137 95.8396C220.354 94.6401 222.969 94.5856 225.19 95.8066C227.081 96.8468 228.262 98.5241 229.439 100.234C229.689 100.599 229.937 100.959 230.192 101.313C230.707 102.025 230.757 102.73 230.559 103.334C230.338 104.002 229.776 104.568 229.073 104.863C228.424 105.137 227.67 105.176 227.003 104.895C226.44 104.658 225.922 104.194 225.595 103.41C225.044 102.09 224.126 100.632 222.912 99.8556ZM264.913 102.796C264.348 103.09 263.904 103.179 263.276 102.991C262.929 102.887 262.584 102.688 262.316 102.42C262.049 102.153 261.857 101.823 261.782 101.455C261.599 100.55 261.102 99.7036 260.395 99.1512C259.791 98.6777 259.027 98.428 258.181 98.5686C257.267 98.7207 256.397 99.3061 255.798 99.9948C255.598 100.226 255.44 100.488 255.283 100.748C254.987 101.234 254.7 101.686 254.293 102.044C254.139 102.18 253.907 102.275 253.681 102.275C253.59 102.275 253.496 102.259 253.407 102.232C252.499 101.321 252.324 100.63 252.353 99.9446C252.384 99.2272 252.668 98.4998 253.126 97.8211C254.202 96.2285 256.245 94.9228 257.624 94.6272C259.512 94.2226 261.386 94.709 262.89 95.7607C264.437 96.844 265.583 98.5241 265.94 100.42C266.026 100.876 265.989 101.368 265.816 101.796C265.645 102.212 265.349 102.569 264.913 102.796ZM227.074 82.8805C225.942 83.9824 224.601 84.1531 223.245 84.3052C222.49 84.3899 221.889 84.4587 221.296 84.5922C219.669 84.9595 218.061 85.5105 216.593 86.3068C215.058 87.1375 213.386 88.1404 212.184 89.4246C211.897 89.7302 211.627 90.0516 211.357 90.373C211.111 90.6657 210.874 90.9484 210.624 91.2195C210.337 91.5323 210.065 91.8595 209.794 92.1866C209.626 92.4621 209.593 92.5295 209.558 92.6013C209.508 92.706 209.449 92.8251 209.382 92.9528C209.288 93.1264 209.181 93.3172 209.068 93.4908C208.878 93.8079 208.778 93.894 208.69 93.9328C208.545 93.9973 208.407 94.0303 208.274 94.0131C208.148 93.9959 208.03 93.9356 207.914 93.8381C207.331 93.3474 207.161 92.5424 207.178 91.6887C207.205 90.3917 207.684 88.9554 208.126 88.073C209.152 86.0227 210.577 83.892 212.29 82.3611C214.244 80.6149 216.384 79.292 218.84 78.3809C220.365 77.8141 222.133 77.2933 223.796 77.3593C224.992 77.4067 226.136 77.7625 227.079 78.6492C227.658 79.193 227.937 79.9678 227.937 80.7411C227.937 81.5303 227.648 82.3237 227.074 82.8805ZM267.219 92.9686C267.146 93.0862 267.047 93.168 266.936 93.2168C266.818 93.2684 266.689 93.2828 266.564 93.2613C266.441 93.2412 266.322 93.1852 266.229 93.0991C266.14 93.0174 266.071 92.9083 266.041 92.7749C265.289 89.4777 263.828 87.0242 260.71 85.4416C259.177 84.6639 257.413 84.1689 255.745 83.7758C255.258 83.661 254.746 83.5864 254.229 83.5118C252.612 83.275 250.982 83.0053 249.928 81.701C249.292 80.9148 249.025 79.909 249.176 78.9893C249.318 78.1241 249.826 77.3306 250.747 76.8543C253.041 75.6704 255.892 76.8327 258.208 77.8213C258.38 77.8945 258.55 77.9677 258.715 78.0365C260.98 78.9907 263.046 80.2504 264.745 82.0526C266.092 83.4816 267.341 85.5937 267.844 87.7674C268.262 89.5767 268.164 91.4219 267.219 92.9686Z" fill="black"/>
<path fill-rule="evenodd" clip-rule="evenodd" d="M216.625 141.692C219.384 135.241 225.404 130.5 232.337 128.767C237.428 127.499 242.771 127.539 247.961 128.042C250.68 128.305 253.595 128.52 256.158 129.527C258.346 130.388 260.129 132.015 261.469 133.925C263.066 136.189 264.151 138.779 264.914 141.435C265.022 141.812 265.124 142.192 265.219 142.576C264.887 144.579 264.184 146.283 262.325 147.543C260.51 148.774 258.344 149.276 256.187 149.455C255.974 149.354 255.77 149.249 255.582 149.143C252.219 147.221 249.852 142.68 245.608 143.294C241.82 143.844 239.326 148.6 237.073 151.39C229.842 152.23 222.616 150.062 216.732 145.936C216.434 144.524 216.415 143.099 216.625 141.692ZM270.133 136.799C269.555 135.178 268.826 133.609 267.962 132.132C265.108 127.243 260.725 123.348 255.521 121.122C243.213 115.862 227.287 119.57 217.346 128.196C213.952 131.144 210.518 135.478 209.479 140.139C209.169 140.2 208.877 140.362 208.636 140.588C201.454 136.076 194.058 131.734 188.271 125.478C184.069 120.934 181.146 115.557 179.356 109.645C179.209 109.159 178.423 109.231 178.447 109.769C178.454 109.895 178.46 110.02 178.467 110.146C178.393 109.915 178.038 110.034 178.011 110.258C177.048 117.438 175.843 125.051 176.954 132.268C177.617 136.574 179.576 139.726 182.196 143.131C185.004 146.78 188.182 150.174 191.432 153.428C193.496 155.495 195.649 157.878 198.174 159.393C201.111 161.152 204.443 162.491 207.577 163.848C210.765 165.234 214.002 166.514 217.299 167.624C223.89 169.85 230.703 171.389 237.636 172.064C243.186 172.602 249.529 173.187 254.848 171.104C258.924 169.507 262.216 166.62 264.825 163.148C267.666 159.366 269.913 155.057 271.154 150.514C272.446 145.795 270.405 137.559 270.133 136.799Z" fill="black"/>
</svg>
